<?xml version="1.0" standalone="no"?>
<!DOCTYPE svg PUBLIC "-//W3C//DTD SVG 1.1//EN" "http://www.w3.org/Graphics/SVG/1.1/DTD/svg11.dtd" >
<svg>
<metadata>
Created by FontForge 20090622 at Tue May 17 02:18:51 2016
 By deploy user
copyright missing
</metadata>
<defs>
<font id="PhillySans-Regular" horiz-adv-x="576" >
  <font-face 
    font-family="Philly Sans"
    font-weight="400"
    font-stretch="normal"
    units-per-em="1000"
    panose-1="0 0 5 0 0 0 0 0 0 0"
    ascent="750"
    descent="-250"
    x-height="468"
    cap-height="526"
    bbox="-132 -95 744 740"
    underline-thickness="50"
    underline-position="-25"
    unicode-range="U+000D-U+007A"
  />
<missing-glyph horiz-adv-x="260" 
 />
    <glyph glyph-name=".notdef" horiz-adv-x="260" 
 />
    <glyph glyph-name=".null" horiz-adv-x="0" 
 />
    <glyph glyph-name="nonmarkingreturn" horiz-adv-x="333" 
 />
    <glyph glyph-name="CR" unicode="&#xd;" horiz-adv-x="260" 
 />
    <glyph glyph-name="space" unicode=" " horiz-adv-x="260" 
 />
    <glyph glyph-name="hyphen" unicode="-" horiz-adv-x="366" 
d="M306 239l-252 -11l-24 109l291 6z" />
    <glyph glyph-name="period" unicode="." horiz-adv-x="319" 
d="M165 139q32 0 52 -17q22 -17 22 -46q0 -31 -21 -50q-22 -20 -63 -20q-42 0 -61 23q-14 15 -14 40q0 33 25 53q25 17 60 17z" />
    <glyph glyph-name="zero" unicode="0" horiz-adv-x="570" 
d="M303 499q106 0 176.5 -72t70.5 -176q0 -105 -86 -170.5t-197 -65.5q-117 0 -182 65.5t-65 164.5q0 105 84 179.5t199 74.5zM297 406q-54 0 -90 -48.5t-36 -108.5q0 -53 27.5 -92.5t85.5 -39.5q56 0 85.5 40t33.5 102q3 55 -26 101t-80 46z" />
    <glyph glyph-name="one" unicode="1" horiz-adv-x="322" 
d="M162 520l114 -23q-9 -111 -9 -211q0 -121 15 -274l-153 -14q-16 116 -16 217q0 68 8 146l-105 -31l-11 93z" />
    <glyph glyph-name="two" unicode="2" horiz-adv-x="490" 
d="M129 551l11 -86q59 53 129 53q173 0 173 -158q0 -33 -16 -63.5t-50 -58.5t-67 -49.5t-85 -50.5q18 -2 54 -2q56 0 178 12l24 3l-49 -132q-109 -8 -193 -8q-70 0 -170 5l-38 93l85 62l74 55t54 43.5t42 43t12 32.5q0 29 -14.5 47.5t-44.5 18.5q-27 0 -52 -22t-26 -73l-1 1
v-1l-79 -30l-74 195z" />
    <glyph glyph-name="three" unicode="3" horiz-adv-x="506" 
d="M437 512l41 -89q-32 -33 -110 -83q-48 -30 -59 -38l37 -3q59 -5 99.5 -43.5t40.5 -103.5q0 -67 -59.5 -113.5t-156.5 -46.5q-171 0 -250 173l134 3q38 -60 112 -60q33 0 54 21.5t21 46.5q0 23 -22.5 35.5t-56.5 12.5q-44 0 -83 -19l-29 75q78 43 133 107q-50 -8 -119 -8
q-53 0 -94 4l58 122q8 0 23 -0.5t23 -0.5q60 -2 92 -2q92 0 171 10z" />
    <glyph glyph-name="four" unicode="4" horiz-adv-x="509" 
d="M267 536l133 -48q-14 -114 -14 -267l113 1l-40 -113l-70 1v-31q0 -49 1 -91l-149 12q0 12 -0.5 31t-0.5 27t0.5 26.5t0.5 30.5l-212 6l-24 95q31 31 68 74.5l58.5 70.5l68.5 88zM257 222l2 114q-9 -16 -44 -53q-41 -45 -50 -62z" />
    <glyph glyph-name="five" unicode="5" horiz-adv-x="522" 
d="M66 484l55 34q205 -4 378 -14l-41 -102q-5 0 -14.5 0.5t-13.5 0.5q-59 3 -106 3q-42 0 -94 -3l13 -82l47 8q20 3 41 3q70 0 120.5 -37t50.5 -114q0 -83 -55.5 -137.5t-152.5 -54.5q-171 0 -274 145l147 10q44 -50 108 -50q42 0 66 23t24 66q0 30 -19 43.5t-59 13.5
q-29 0 -69 -33l-105 25l-7 39q-26 156 -40 213z" />
    <glyph glyph-name="six" unicode="6" horiz-adv-x="512" 
d="M418 487v-17q-87 -11 -167 -89.5t-97 -154.5l33 27q26 22 68 36.5t85 15.5q152 0 152 -131q0 -78 -68.5 -136t-183.5 -58q-97 0 -158.5 62t-61.5 148q0 98 65.5 194t182.5 142zM297 207q-41 0 -73 -24.5t-32 -53.5q0 -21 15 -36t49 -15q52 0 78 23.5t26 54.5q0 21 -18 36
t-45 15z" />
    <glyph glyph-name="seven" unicode="7" horiz-adv-x="480" 
d="M406 520l54 -93q-174 -195 -194 -455l-153 33q18 126 62.5 222t119.5 184l-275 -11l39 113z" />
    <glyph glyph-name="eight" unicode="8" horiz-adv-x="464" 
d="M223 525q101 0 154.5 -38t53.5 -91q0 -33 -27 -63t-70 -46q47 -6 83.5 -39.5t36.5 -82.5q0 -63 -59.5 -111t-177.5 -54q-103 -5 -157 37t-54 103q0 45 28.5 82.5t78.5 51.5q-42 15 -64.5 44.5t-22.5 64.5q0 57 56 99.5t141 42.5zM245 407q-39 0 -58.5 -14.5t-19.5 -35.5
q0 -19 17 -33t46 -14q38 0 58 15t21 40q0 18 -16.5 30t-47.5 12zM250 205q-40 0 -63 -15t-26 -36q0 -27 16 -40t63 -10q33 2 53 20t20 38q0 18 -16.5 30.5t-46.5 12.5z" />
    <glyph glyph-name="nine" unicode="9" horiz-adv-x="490" 
d="M360 532l105 -13q-16 -99 -16 -259q0 -158 14 -251l-157 -24q-7 80 -7 173q0 8 0.5 23t0.5 22q-60 -45 -124 -45q-48 0 -87 24.5t-57 64.5q-12 27 -12 60q0 55 20.5 97t54.5 65t71.5 34t76.5 11q50 0 84 -16zM253 421q-34 0 -61 -31t-27 -79q0 -50 44 -50q33 0 75.5 41
t43.5 93q-31 26 -75 26z" />
    <glyph glyph-name="A" unicode="A" horiz-adv-x="486" 
d="M208 558l161 35q0 -68 46 -223q23 -80 61 -182q53 -141 109 -245l-175 21l-80 144l-158 -7l-88 -147l-134 77q48 71 100 158q44 76 93 189q31 75 65 180zM201 187l116 6l-47 137z" />
    <glyph glyph-name="B" unicode="B" horiz-adv-x="503" 
d="M-20 483l112 41q91 -15 178 -41q100 -30 157 -64q68 -40 68 -82q0 -31 -20 -50q-18 -17 -67 -42h1q173 -35 173 -113q0 -63 -109 -95q-66 -20 -225 -34q-88 -7 -109 -8q-55 -5 -81 -10q0 13 1 20q0 13 1 22v26q0 63 -12 147q-3 19 -21 106q-1 5 -3.5 16t-3.5 17
q-20 80 -40 144zM166 397q5 -12 22 -80l9 -53q75 0 113 20q31 16 31 44q0 24 -47 45q-53 24 -128 24zM207 194l7 -99q53 5 95 12q41 7 66 18q30 12 30 26q0 13 -20 22q-41 17 -114 20q-23 1 -64 1z" />
    <glyph glyph-name="C" unicode="C" horiz-adv-x="581" 
d="M521 298l-143 -55q-16 71 -37 122q-20 52 -48 84q-33 38 -70 38t-65 -39q-29 -41 -29 -90q0 -108 48 -185q54 -90 153 -90q40 0 76 24q38 24 54 66l188 34q-45 -88 -132 -149q-96 -69 -202 -69q-165 0 -257 89q-88 85 -88 232q0 132 89 207q76 64 179 64q72 0 129 -47
q24 -19 42 -46l17 139l168 49z" />
    <glyph glyph-name="D" unicode="D" horiz-adv-x="569" 
d="M-41 459l102 74q116 0 244 -40q126 -39 206 -106q87 -72 87 -150q0 -53 -41.5 -102.5t-114.5 -87.5q-157 -82 -363 -82l-38 63q14 11 21 61q4 23 4 73q0 75 -54 195q-22 48 -53 102zM179 377l5 -12q14 -30 26 -74q15 -53 19 -119q1 -9 1 -23q0 -23 -4 -39q58 5 98 20
q45 17 68 40q30 30 30 72q0 64 -86 103q-71 32 -157 32z" />
    <glyph glyph-name="E" unicode="E" horiz-adv-x="452" 
d="M391 496l30 -103q-121 7 -196 7l-88 -3l15 -72l268 15l-12 -96l-250 -22q5 -45 6 -79l341 48l-50 -118l-418 -71q0 94 -21 239q-22 139 -44 198l89 69z" />
    <glyph glyph-name="F" unicode="F" horiz-adv-x="394" 
d="M372 486l62 -119l-275 10q9 -15 20 -78l231 1l-19 -79l-198 -17q11 -99 11 -196l-71 -15q-24 -4 -49 -9l-25 -5q0 115 -18 243q-22 144 -59 237l28 39z" />
    <glyph glyph-name="G" unicode="G" horiz-adv-x="622" 
d="M521 338l-143 -55q-16 59 -37 102q-22 45 -48 70q-34 32 -70 32q-37 0 -65 -39q-29 -41 -29 -90q0 -108 48 -185q54 -90 153 -90q42 0 76 23q37 24 53 65l-184 2l3 54l328 85l43 -45l-16 -352l-138 76l7 81q-83 -83 -188 -83q-165 0 -257 89q-88 85 -88 232q0 132 89 207
q76 64 179 64q72 0 129 -47q24 -19 42 -46l17 139l168 49z" />
    <glyph glyph-name="H" unicode="H" horiz-adv-x="495" 
d="M471 -30l-20 -3q-19 -4 -47 -9l-70 -12q-12 62 -18 164q-2 26 -4 80l-153 -11q4 -73 15 -146l-20 -3q-19 -4 -47 -9l-70 -12q-12 62 -18 146q-7 86 -8 152q-2 82 -2 123v46l144 38q-1 -36 -1 -106q0 -74 3 -153l155 9l-1 39q0 18 -0.5 55.5t-0.5 56.5t0.5 57.5t0.5 58.5
l144 38q-3 -83 -3 -165v-54q0 -84 5 -196q5 -111 16 -184z" />
    <glyph glyph-name="I" unicode="I" horiz-adv-x="236" 
d="M9 494l138 32q60 -188 74 -495l-134 -19q0 57 -14 167q-12 95 -31 185q-19 87 -33 130z" />
    <glyph glyph-name="J" unicode="J" horiz-adv-x="450" 
d="M196 474l150 47q14 -45 38 -104q58 -145 80 -223q15 -52 15 -95q0 -61 -79 -94q-71 -29 -183 -29q-95 0 -194 48q-81 39 -155 113l78 26l16 5.5l13 4.5q18 6 25 9q7 2 17 6l6 2q36 -38 104 -75q71 -39 108 -39q45 0 62.5 10t17.5 43q0 37 -51 158q-56 127 -68 187z" />
    <glyph glyph-name="K" unicode="K" horiz-adv-x="606" 
d="M680 76l21 -11l-160 -53l-129 69l-56 31q-48 25 -112 63q-9 5 -49 29q16 -76 34 -132l19 -56l-41.5 -5.5t-38.5 -5.5q-47 -7 -55 -8q-25 -5 -27 -6q-44 112 -62 277q-9 76 -9 149q0 62 8 120l151 -22q-7 -70 -7 -133q0 -54 9 -100q57 24 140 107q40 40 72 79l97 6
q24 2 35 3l52 4h7l-148 -139l-77 -72q49 -36 140 -91q83 -50 138 -78q24 -14 48 -25z" />
    <glyph glyph-name="L" unicode="L" horiz-adv-x="377" 
d="M-18 474l137 42q43 -143 70 -377l290 42l-42 -124l-266 -51q-104 -4 -120 -4q0 106 -23 257q-24 157 -46 215z" />
    <glyph glyph-name="M" unicode="M" horiz-adv-x="754" 
d="M699 350q45 -195 45 -347l-74 -20q-9 -3 -27 -7q-3 -1 -24 -7q-12 -5 -24 -6q0 93 -22 212q-11 54 -31 128q-1 5 -7 27q-17 -27 -36 -102q-22 -81 -38 -212l-107 -27q0 27 -28 93q-21 47 -64 116q-43 64 -66 85q14 -68 28 -174q5 -50 5 -81l-70 -18q-24 -7 -47 -12
q-22 -6 -22 -7q0 139 -50 337q-27 102 -50 169l119 59q55 -37 125 -119q59 -69 107 -136l33 -47q10 -17 10 -18q43 171 78 289l28 92q45 14 60 19l41 14q17 6 17 7q50 -129 91 -307z" />
    <glyph glyph-name="N" unicode="N" horiz-adv-x="587" 
d="M367 643l156 48q35 -121 55 -284q10 -81 10 -184q0 -92 -4 -151q-1 -14 -2.5 -39t-1.5 -36l-139 -39q-43 79 -149 207q-41 48 -91 98q1 -1 6 -28q9 -52 17 -143q3 -42 3 -75l-167 -32q0 13 1 20q0 13 1 22v26q0 117 -42 291q-15 65 -41 149l115 41q7 -7 22 -20.5
t19 -17.5l36 -33q97 -88 179 -182q48 -55 79 -99q2 15 2 48q0 64 -9 136q-10 78 -34 190q-6 30 -14 63z" />
    <glyph glyph-name="O" unicode="O" 
d="M308 516q116 0 198 -65q82 -66 82 -174q0 -115 -81 -187q-88 -78 -236 -78q-160 0 -233 87q-53 62 -53 152q0 129 94 199q89 66 229 66zM292 431q-59 0 -96 -46.5t-37 -125.5t28 -118q31 -44 105 -44q68 0 100 51q28 45 28 127q0 73 -40 116q-37 40 -88 40z" />
    <glyph glyph-name="P" unicode="P" horiz-adv-x="493" 
d="M-21 493l115 41q86 -14 194 -47q112 -34 189 -77q84 -48 84 -98q0 -64 -86 -103q-92 -42 -262 -42q7 -34 10 -74q2 -28 2 -76l-165 -32q0 13 1 20q0 13 1 22v26q0 117 -42 291q-15 65 -41 149zM170 397q8 -13 23 -84q1 -4 2.5 -12t1.5 -12q2 -11 6 -35q79 0 135 17
q28 8 39 17q14 9 14 19t-19 25q-45 35 -122 55q-39 10 -80 10z" />
    <glyph glyph-name="Q" unicode="Q" 
d="M517 90q-11 -10 -37 -28l52 -73l-106 -84l-59 115q-42 -8 -86 -8q-160 0 -233 87q-53 62 -53 152q0 129 94 199q88 66 229 66q116 0 198 -65q82 -66 82 -174q0 -115 -81 -187zM302 97q9 0 25 2l-41 80l72 53l51 -71q21 42 21 114q0 73 -40 116q-37 40 -88 40
q-59 0 -96 -46.5t-37 -125.5t28 -118q31 -44 105 -44z" />
    <glyph glyph-name="R" unicode="R" horiz-adv-x="567" 
d="M-21 493l115 41q102 -17 194 -42q128 -35 189 -67q84 -44 84 -93q0 -39 -54 -64q-26 -13 -54 -20q-20 -5 -60 -17q67 -26 118 -51q58 -29 98 -54q53 -33 83 -63q0 -1 -9 -5l-62 -25l-36 -14q-6 -3 -16 -6.5t-12 -4.5q-11 -4 -13 -4q-1 0 -5 4l-9 7q-40 34 -91 65
q-64 40 -143 64q-42 11 -79 11q4 -33 6 -81q2 -58 2 -77l-165 -32q0 30 2 84v34q0 116 -42 276q-16 61 -41 134zM170 397q8 -13 23 -84q1 -4 2.5 -12t1.5 -12q2 -11 6 -35q79 0 135 17q28 8 39 17q14 9 14 19t-19 25q-45 35 -122 55q-39 10 -80 10z" />
    <glyph glyph-name="S" unicode="S" horiz-adv-x="549" 
d="M494 339l-117 -28q-1 7 -6 18q-8 22 -29.5 44t-52.5 32q-33 10 -68 10q-29 0 -48 -6q-20 -8 -20 -18q0 -14 31 -29q32 -15 78 -33q4 -1 13 -4.5l14 -5.5q125 -49 174 -75q108 -57 108 -119q0 -51 -55 -84q-64 -39 -185 -39q-108 0 -212 32q-114 35 -161 92l109 81
q45 -49 130 -77q66 -22 140 -22q29 0 48 6q18 4 18 16t-31 27q-34 15 -79 32q-147 54 -205 85q-110 59 -110 118q0 54 47 88q60 43 180 43q18 0 45 -4q39 -8 64 -21l-26 71l148 65z" />
    <glyph glyph-name="T" unicode="T" horiz-adv-x="396" 
d="M199 513q129 0 224 -5q69 -4 92 -5l-21 -95l-106 3q-6 1 -19 1t-20 1q-24 0 -34 1q-4 0 -12.5 0.5t-11.5 1.5h-9q-4 -36 -4 -69q0 -131 41 -317l-79 -23q-19 -7 -54 -16q-9 -3 -25 -7q-26 107 -35 186q-10 91 -10 234q-70 0 -166 -15l-76 -15l29 99q73 23 176 34
q54 6 120 6z" />
    <glyph glyph-name="U" unicode="U" horiz-adv-x="530" 
d="M292 542l159 78q51 -41 80 -135q15 -49 15 -122q0 -159 -92 -262t-236 -103q-125 0 -179 95q-41 70 -41 196q0 46 16 100q10 30 16 43l163 98q-25 -49 -41 -124q-8 -38 -8 -74q0 -92 25 -150q30 -70 96 -70q41 0 72 36q44 51 44 162q0 107 -45 179q-21 35 -44 53z" />
    <glyph glyph-name="V" unicode="V" horiz-adv-x="415" 
d="M360 662l175 21q-69 -147 -116 -260q-47 -112 -80 -221q-33 -108 -61 -249l-138 34q-24 82 -59 172q-33 84 -90 188l-45 79l-46 79l124 67q61 -94 123 -222q31 -69 49 -129q21 75 48 153q35 99 63 169q28 73 53 119z" />
    <glyph glyph-name="W" unicode="W" 
d="M420 652l152 88q21 -66 32 -164q6 -53 6 -122q0 -123 -36 -282q-21 -93 -35 -144l-145 -70q-18 49 -47 117q-19 47 -45 102q-28 59 -47 91q-17 -43 -38 -148l-12 -58q-1 -7 -4 -20.5t-4 -20.5l-120 -39l-112 465l134 85l81 -278l31 211l102 56l113 -278q11 48 17 126
q3 37 3 86q0 81 -13 146q-7 33 -13 51z" />
    <glyph glyph-name="X" unicode="X" horiz-adv-x="460" 
d="M83 525l138 -187q59 68 89 112l158 13q-43 -51 -87 -95q-51 -53 -88 -102l209 -258l-165 -27l-36 52q-3 4 -8.5 12t-8.5 12l-55 79l-33 41q-27 -27 -57 -68l-64 -80l-154 -1l199 228q-10 13 -37 44l-42 51l-78 94z" />
    <glyph glyph-name="Y" unicode="Y" horiz-adv-x="402" 
d="M296 543l157 25q-21 -59 -38 -113q-2 -5 -5 -15t-5 -15l-62 -198q-3 -7 -7 -21l-39 -126l-42 -135l-168 -37l125 327q-31 -23 -68 -34q-21 -6 -44 -6q-81 0 -104 98q-9 39 -9 87q0 61 14 134l138 -15q-15 -56 -15 -106q0 -34 7 -49q12 -29 38 -29q23 0 45 18.5t34 52.5
q20 58 37 115q3 8 11 42z" />
    <glyph glyph-name="Z" unicode="Z" horiz-adv-x="479" 
d="M521 177l-49 -116l-460 -17l-28 109l273 252l-13 -2q-8 -1 -31 -1q-7 -1 -21 -1.5t-22 -0.5q-8 -1 -24.5 -1.5t-24.5 -0.5l-133 -3l37 111l396 -1l57 -75l-296 -256z" />
    <glyph glyph-name="a" unicode="a" horiz-adv-x="486" 
d="M208 558l161 35q0 -68 46 -223q23 -80 61 -182q53 -141 109 -245l-175 21l-80 144l-158 -7l-88 -147l-134 77q48 71 100 158q44 76 93 189q31 75 65 180zM201 187l116 6l-47 137z" />
    <glyph glyph-name="b" unicode="b" horiz-adv-x="503" 
d="M-20 483l112 41q91 -15 178 -41q100 -30 157 -64q68 -40 68 -82q0 -31 -20 -50q-18 -17 -67 -42h1q173 -35 173 -113q0 -63 -109 -95q-66 -20 -225 -34q-88 -7 -109 -8q-55 -5 -81 -10q0 13 1 20q0 13 1 22v26q0 63 -12 147q-3 19 -21 106q-1 5 -3.5 16t-3.5 17
q-20 80 -40 144zM166 397q5 -12 22 -80l9 -53q75 0 113 20q31 16 31 44q0 24 -47 45q-53 24 -128 24zM207 194l7 -99q53 5 95 12q41 7 66 18q30 12 30 26q0 13 -20 22q-41 17 -114 20q-23 1 -64 1z" />
    <glyph glyph-name="c" unicode="c" horiz-adv-x="516" 
d="M244 551q95 0 159 -57q73 -66 97 -197l-129 -50q-15 64 -32 105q-21 47 -42 72q-28 33 -63 33q-33 0 -55 -32t-22 -77q0 -100 38 -160q45 -75 133 -75q95 0 127 49l163 15q-70 -79 -129 -112q-82 -46 -175 -46q-150 0 -232 80q-79 77 -79 208q0 119 80 187q69 57 161 57z
" />
    <glyph glyph-name="d" unicode="d" horiz-adv-x="569" 
d="M-41 459l102 74q116 0 244 -40q126 -39 206 -106q87 -72 87 -150q0 -53 -41.5 -102.5t-114.5 -87.5q-157 -82 -363 -82l-38 63q14 11 21 61q4 23 4 73q0 75 -54 195q-22 48 -53 102zM179 377l5 -12q14 -30 26 -74q15 -53 19 -119q1 -9 1 -23q0 -23 -4 -39q58 5 98 20
q45 17 68 40q30 30 30 72q0 64 -86 103q-71 32 -157 32z" />
    <glyph glyph-name="e" unicode="e" horiz-adv-x="452" 
d="M391 496l30 -103q-121 7 -196 7l-88 -3l15 -72l268 15l-12 -96l-250 -22q5 -45 6 -79l341 48l-50 -118l-418 -71q0 94 -21 239q-22 139 -44 198l89 69z" />
    <glyph glyph-name="f" unicode="f" horiz-adv-x="394" 
d="M372 486l62 -119l-275 10q9 -15 20 -78l231 1l-19 -79l-198 -17q11 -99 11 -196l-71 -15q-24 -4 -49 -9l-25 -5q0 115 -18 243q-22 144 -59 237l28 39z" />
    <glyph glyph-name="g" unicode="g" horiz-adv-x="565" 
d="M237 581q105 0 198 -84q39 -37 62.5 -80t23.5 -79l-143 -55q-16 59 -37 102q-22 45 -48 70q-34 32 -70 32q-37 0 -65 -39q-29 -41 -29 -90q0 -108 48 -185q54 -90 153 -90q42 0 76 23q37 24 53 65l-183 4l-6 71l314 38l35 -17l-16 -271l-108 -35l8 112q-84 -84 -189 -84
q-165 0 -257 89q-88 85 -88 232q0 132 89 207q76 64 179 64z" />
    <glyph glyph-name="h" unicode="h" horiz-adv-x="441" 
d="M9 476l144 38q-3 -45 -3 -95q0 -10 0.5 -31t0.5 -33l3 -101l136 9q-2 56 -2 80v66q0 43 1 62l144 38q-3 -67 -3 -132q0 -83 5 -198q5 -93 16 -169l-20 -3q-19 -4 -47 -9l-70 -12q-16 83 -21 202l-134 -10q5 -76 15 -145l-20 -3q-19 -4 -47 -9l-70 -12q-12 62 -18 146
q-7 86 -8 152q-2 82 -2 123v46z" />
    <glyph glyph-name="i" unicode="i" horiz-adv-x="236" 
d="M9 494l138 32q60 -188 74 -495l-134 -19q0 57 -14 167q-12 95 -31 185q-19 87 -33 130z" />
    <glyph glyph-name="j" unicode="j" horiz-adv-x="450" 
d="M196 474l150 47q14 -45 38 -104q58 -145 80 -223q15 -52 15 -95q0 -61 -79 -94q-71 -29 -183 -29q-95 0 -194 48q-81 39 -155 113l78 26l16 5.5l13 4.5q18 6 25 9q7 2 17 6l6 2q36 -38 104 -75q71 -39 108 -39q45 0 62.5 10t17.5 43q0 37 -51 158q-56 127 -68 187z" />
    <glyph glyph-name="k" unicode="k" horiz-adv-x="606" 
d="M680 76l21 -11l-160 -53l-129 69l-56 31q-48 25 -112 63q-9 5 -49 29q16 -76 34 -132l19 -56l-41.5 -5.5t-38.5 -5.5q-47 -7 -55 -8q-25 -5 -27 -6q-44 112 -62 277q-9 76 -9 149q0 62 8 120l151 -22q-7 -70 -7 -133q0 -54 9 -100q57 24 140 107q40 40 72 79l97 6
q24 2 35 3l52 4h7l-148 -139l-77 -72q49 -36 140 -91q83 -50 138 -78q24 -14 48 -25z" />
    <glyph glyph-name="l" unicode="l" horiz-adv-x="377" 
d="M-18 474l137 42q43 -143 70 -377l290 42l-42 -124l-266 -51q-104 -4 -120 -4q0 106 -23 257q-24 157 -46 215z" />
    <glyph glyph-name="m" unicode="m" horiz-adv-x="654" 
d="M628 346q40 -183 40 -312l-69 -18l-70 -18q0 91 -18 174q-11 50 -32 123q-18 -31 -27 -76q-16 -69 -28 -174l-117 -24q0 41 -38 117q-35 69 -76 108q11 -56 19 -124q3 -34 3 -66q-97 -21 -122 -27q-23 -5 -23 -6q0 125 -40 303q-20 87 -40 152l127 53q49 -33 108 -107
q39 -49 86 -122l25 -42q8 -14 8 -16q40 155 61 260q11 50 15 82q14 4 37 10l27 7l44 13q18 4 18 6q46 -118 82 -276z" />
    <glyph glyph-name="n" unicode="n" horiz-adv-x="587" 
d="M377 573l156 48q-3 -24 -3 -65q0 -78 8 -204q7 -113 20 -240l12 -112l-139 -32q-48 89 -140 197q-45 52 -81 89q1 -1 4 -23q6 -46 11 -123q2 -50 2 -71l-167 -32q0 13 1 20q0 13 1 22v26q0 114 -9 197q-16 129 -54 223l115 41q73 -68 156 -157q85 -92 159 -195
q-23 64 -35 166q-9 62 -13 156l-3 50z" />
    <glyph glyph-name="o" unicode="o" horiz-adv-x="456" 
d="M238 468q97 0 160 -52q67 -56 67 -141q0 -92 -66 -152q-71 -63 -191 -63q-128 0 -188 70q-44 50 -44 123q0 104 77 162q71 53 185 53zM225 373q-40 0 -64 -30.5t-24 -83.5q0 -51 20 -78t68 -27q83 0 83 117q0 48 -24.5 75t-58.5 27z" />
    <glyph glyph-name="p" unicode="p" horiz-adv-x="493" 
d="M-21 493l115 41q86 -14 194 -47q112 -34 189 -77q84 -48 84 -98q0 -64 -86 -103q-92 -42 -262 -42q7 -34 10 -74q2 -28 2 -76l-165 -32q0 13 1 20q0 13 1 22v26q0 117 -42 291q-15 65 -41 149zM170 397q8 -13 23 -84q1 -4 2.5 -12t1.5 -12q2 -11 6 -35q79 0 135 17
q28 8 39 17q14 9 14 19t-19 25q-45 35 -122 55q-39 10 -80 10z" />
    <glyph glyph-name="q" unicode="q" 
d="M318 516q116 0 198 -65q82 -66 82 -174q0 -141 -119 -215l53 -73l-106 -84l-59 115q-43 -8 -86 -8q-160 0 -233 87q-53 62 -53 152q0 129 94 199q88 66 229 66zM302 431q-59 0 -96 -46.5t-37 -125.5t28 -118q31 -44 105 -44h13q4 0 12 2l-41 80l72 53l51 -71
q21 43 21 114q0 73 -40 116q-37 40 -88 40z" />
    <glyph glyph-name="r" unicode="r" horiz-adv-x="452" 
d="M-33 446l93 33q94 -17 157 -34q105 -28 153 -54q69 -37 69 -76q0 -33 -34 -52q-25 -14 -83 -30q75 -31 159 -84q42 -28 64 -52l-20 -9l-48 -19q-30 -12 -49 -18q-22 -9 -24 -9l-9 11q-25 27 -65 59q-49 39 -108 60q-29 10 -62 10q0 -3 0.5 -10.5t0.5 -12.5q2 -19 4 -63
q0 -34 1 -49v-35l-133 6q0 24 2 68v28q0 96 -34 224q-16 60 -34 108zM122 369q8 -14 18 -58q2 -6 4.5 -19t3.5 -19q133 0 133 33q0 8 -12 19q-26 23 -85 37q-27 7 -62 7z" />
    <glyph glyph-name="s" unicode="s" horiz-adv-x="537" 
d="M204 523q100 0 185 -33q92 -35 137 -94l-134 -46q-27 30 -82 50q-42 15 -90 15q-28 0 -48 -6q-20 -8 -20 -18q0 -14 31 -29t78 -33q5 -1 14 -4.5t13 -5.5q125 -49 174 -75q108 -57 108 -119q0 -51 -55 -84q-64 -39 -185 -39q-108 0 -212 32q-114 35 -161 92l109 81
q45 -49 130 -77q66 -22 140 -22q28 0 48 6q18 4 18 16t-31 27q-34 15 -79 32q-147 54 -205 85q-110 59 -110 118q0 54 47 88q60 43 180 43z" />
    <glyph glyph-name="t" unicode="t" horiz-adv-x="396" 
d="M189 453q124 0 209 -5q65 -4 77 -5l-21 -97l-92 2q-30 0 -64 2q-16 0 -21 1h-8q-5 -38 -5 -84q0 -103 25 -227l-78 -14q-20 -4 -29 -5l-49 -8q-27 133 -27 331q-75 0 -141 -10q-33 -5 -51 -10l29 99q38 14 133 25q52 5 113 5z" />
    <glyph glyph-name="u" unicode="u" horiz-adv-x="424" 
d="M232 475l129 63q41 -34 65 -109q12 -41 12 -99q0 -129 -75 -212q-76 -84 -191 -84q-101 0 -145 77q-33 57 -33 159q0 42 13 81q4 14 13 35l132 79q-11 -42 -17 -100q-3 -29 -3 -60q0 -63 17 -103q20 -48 62 -48q25 0 47 27q26 35 26 106q0 83 -26 145q-11 26 -26 43z" />
    <glyph glyph-name="v" unicode="v" horiz-adv-x="435" 
d="M380 572l175 21q-56 -104 -109 -245q-33 -87 -61 -182q-46 -155 -46 -223l-161 35q-38 114 -65 180q-46 108 -93 189l-100 158l134 77q72 -105 140 -239q34 -72 52 -132q26 99 64 201q40 109 70 160z" />
    <glyph glyph-name="w" unicode="w" 
d="M420 652l152 88q21 -66 32 -164q6 -53 6 -122q0 -123 -36 -282q-21 -93 -35 -144l-145 -70q-18 49 -47 117q-19 47 -45 102q-28 59 -47 91q-17 -43 -38 -148l-12 -58q-1 -7 -4 -20.5t-4 -20.5l-120 -39l-112 465l134 85l81 -278l31 211l102 56l113 -278q11 48 17 126
q3 37 3 86q0 81 -13 146q-7 33 -13 51z" />
    <glyph glyph-name="x" unicode="x" horiz-adv-x="486" 
d="M133 495l137 -147l80 112l158 13l-165 -207l169 -208l-135 -37l-124 147q-3 3 -8.5 9.5t-8.5 9.5q-27 -27 -57 -68l-64 -80l-154 -1l199 228l-82 96q-3 3 -37 46l-38 47z" />
    <glyph glyph-name="y" unicode="y" horiz-adv-x="402" 
d="M296 543l157 25q-21 -59 -38 -113q-2 -5 -5 -15t-5 -15l-62 -198q-3 -7 -7 -21l-39 -126l-42 -135l-168 -37l125 327q-31 -23 -68 -34q-21 -6 -44 -6q-81 0 -104 98q-9 39 -9 87q0 61 14 134l138 -15q-15 -56 -15 -106q0 -34 7 -49q12 -29 38 -29q23 0 45 18.5t34 52.5
q20 58 37 115q3 8 11 42z" />
    <glyph glyph-name="z" unicode="z" horiz-adv-x="479" 
d="M521 177l-49 -116l-460 -17l-28 109l273 252l-13 -2q-8 -1 -31 -1q-7 -1 -21 -1.5t-22 -0.5q-8 -1 -24.5 -1.5t-24.5 -0.5l-133 -3l37 111l396 -1l57 -75l-296 -256z" />
    <glyph glyph-name="H.35" horiz-adv-x="495" 
d="M309 531l144 38q-3 -83 -3 -165v-54q0 -84 5 -196q5 -111 16 -184l-20 -3q-19 -4 -47 -9l-70 -12q-15 74 -22 244l-153 -12q5 -76 15 -145l-20 -3q-19 -4 -47 -9l-70 -12q-12 62 -18 146q-7 86 -8 152q-2 82 -2 123v46l144 38q-3 -45 -3 -95q0 -10 0.5 -31t0.5 -33
l3 -101l156 10q-2 70 -2 101v85q0 56 1 81z" />
    <glyph glyph-name="alt_S" horiz-adv-x="549" 
 />
    <glyph glyph-name="null" horiz-adv-x="0" 
 />
  </font>
</defs>
</svg>
